HIERARCHY
ROOT Root
{
	OFFSET 0.00000 0.00000 0.00000
	CHANNELS 6 Xposition Yposition Zposition Zrotation Xrotation Yrotation
	JOINT Hip
	{
		OFFSET 0 0 0	
		CHANNELS 3 Zrotation Xrotation Yrotation
		JOINT Tummy
		{
			OFFSET 0 0.04 0	
			CHANNELS 3 Zrotation Xrotation Yrotation
			JOINT ChestBottom
			{
				OFFSET 0 0.194 0	
				CHANNELS 3 Zrotation Xrotation Yrotation
				JOINT ChestTop
				{
					OFFSET 0 0.166 0	
					CHANNELS 3 Zrotation Xrotation Yrotation
					JOINT LeftCollar
					{
						OFFSET 0 0.1 0	
						CHANNELS 3 Zrotation Xrotation Yrotation
						JOINT LeftUpperArm
						{
							OFFSET 0.156 -0.02 0.03	
							CHANNELS 3 Zrotation Xrotation Yrotation
							JOINT LeftForeArm
							{
								OFFSET 0.035 -0.27 -0.01	
								CHANNELS 3 Zrotation Xrotation Yrotation
								JOINT LeftHand
								{
									OFFSET 0.01 -0.27 0.01	
									CHANNELS 3 Zrotation Xrotation Yrotation
									End Site
									{
										OFFSET 0 -0.15 0
									}
								}
							}
						}
					}
					JOINT RightCollar
					{
						OFFSET 0 0.1 0	
						CHANNELS 3 Zrotation Xrotation Yrotation
						JOINT RightUpperArm
						{
							OFFSET -0.156 -0.02 0.03	
							CHANNELS 3 Zrotation Xrotation Yrotation
							JOINT RightForeArm
							{
								OFFSET -0.035 -0.27 -0.01	
								CHANNELS 3 Zrotation Xrotation Yrotation
								JOINT RightHand
								{
									OFFSET -0.01 -0.27 0.01	
									CHANNELS 3 Zrotation Xrotation Yrotation
									End Site
									{
										OFFSET 0 -0.15 0
									}
								}
							}
						}
					}
					JOINT Neck
					{
						OFFSET 0 0.1 0	
						CHANNELS 3 Zrotation Xrotation Yrotation
						JOINT Head
						{
							OFFSET 0 0.127 0.03	
							CHANNELS 3 Zrotation Xrotation Yrotation
							End Site
							{
								OFFSET 0 0.127 0.03
							}
						}
					}
				}
			}
		}
	}
	JOINT LeftHip
	{
		OFFSET 0 0 0	
		CHANNELS 3 Zrotation Xrotation Yrotation
		JOINT LeftThigh
		{
			OFFSET 0.088 -0.06 0	
			CHANNELS 3 Zrotation Xrotation Yrotation
			JOINT LeftLowerLeg
			{
				OFFSET 0 -0.39 0.02	
				CHANNELS 3 Zrotation Xrotation Yrotation
				JOINT LeftFootTop
				{
					OFFSET 0 -0.43 -0.02	
					CHANNELS 3 Zrotation Xrotation Yrotation
					JOINT LeftFootFront
					{
						OFFSET 0 -0.07 0.085	
						CHANNELS 3 Zrotation Xrotation Yrotation
						End Site
						{
							OFFSET 0 -0.005 0.09
						}
					}
				}
				JOINT LeftHeel
				{
					OFFSET 0 -0.43 -0.02	
					CHANNELS 3 Zrotation Xrotation Yrotation
					End Site
					{
						OFFSET 0 -0.075 -0.05
					}
				}
			}
		}
	}
	JOINT RightHip
	{
		OFFSET 0 0 0	
		CHANNELS 3 Zrotation Xrotation Yrotation
		JOINT RightThigh
		{
			OFFSET -0.088 -0.06 0	
			CHANNELS 3 Zrotation Xrotation Yrotation
			JOINT RightLowerLeg
			{
				OFFSET 0 -0.39 0.02	
				CHANNELS 3 Zrotation Xrotation Yrotation
				JOINT RightFootTop
				{
					OFFSET 0 -0.43 -0.02	
					CHANNELS 3 Zrotation Xrotation Yrotation
					JOINT RightFootFront
					{
						OFFSET 0 -0.07 0.085	
						CHANNELS 3 Zrotation Xrotation Yrotation
						End Site
						{
							OFFSET 0 -0.005 0.09
						}
					}
				}
				JOINT RightHeel
				{
					OFFSET 0 -0.43 -0.02	
					CHANNELS 3 Zrotation Xrotation Yrotation
					End Site
					{
						OFFSET 0 -0.075 -0.05
					}
				}
			}
		}
	}
}
MOTION
Frames: 7
Frame Time: 0.008
-0.11618 0.95129 0.031125 -0 0 -0 -3.0043 0.47101 -54.681 1.2972 -3.5383 4.0878 1.2972 -3.5383 4.0878 1.0724 -2.9785 3.4276 -0 0 -0 -3.4202 7.5185 8.106 0.94213 4.7192 -1.817 3.3893 -1.5116 -2.8594 -0 0 -0 0.17523 14.084 20.039 31.795 -34.82 -82.961 -30.358 -29.864 73.758 2.0782 6.6281 2.6355 2.741 3.7631 6.1721 -3.0043 0.47101 -54.681 7.06 -5.4402 6.8915 2.1246 9.231 -1.8068 -6.6569 -0.43659 -37.203 0.05932 0.047422 -0.0093784 -0 0 -0 -3.0043 0.47101 -54.681 7.9562 6.0904 14.502 1.7331 -1.7077 -8.0036 -8.1994 -1.3255 -10.563 0.024234 0.01086 -0.0058814 -0 0 -0 
-0.11637 0.95132 0.031484 -0 0 -0 -2.9984 0.44258 -54.672 1.2769 -3.5253 4.0945 1.2769 -3.5253 4.0945 1.0554 -2.9675 3.4333 -0 0 -0 -3.4062 7.49 8.1412 0.96344 4.7219 -1.8527 3.3657 -1.5158 -2.8375 -0 0 -0 0.2044 14.071 20.067 31.74 -34.795 -82.919 -30.403 -29.792 73.725 2.0636 6.5882 2.4057 2.7113 3.7337 5.9467 -2.9984 0.44258 -54.672 7.0148 -5.4465 6.834 2.1128 9.2788 -1.7923 -6.5562 -0.46928 -37.181 0.055821 0.046021 -0.0087253 -0 0 -0 -2.9984 0.44258 -54.672 7.9158 6.1318 14.461 1.7301 -1.7101 -8.0024 -8.1582 -1.3521 -10.541 0.026386 0.012758 -0.006723 -0 0 -0 
-0.11657 0.95135 0.031846 -0 0 -0 -2.9949 0.41461 -54.663 1.2554 -3.5121 4.1006 1.2554 -3.5121 4.1006 1.0375 -2.9564 3.4386 -0 0 -0 -3.3903 7.4633 8.1775 0.98557 4.7216 -1.8844 3.3397 -1.5124 -2.8227 -0 0 -0 0.2352 14.058 20.1 31.691 -34.769 -82.877 -30.451 -29.728 73.698 2.0606 6.5481 2.1766 2.6923 3.7047 5.7222 -2.9949 0.41461 -54.663 6.9738 -5.4525 6.7765 2.0984 9.3318 -1.7751 -6.4587 -0.50419 -37.161 0.051966 0.043624 -0.0079347 -0 0 -0 -2.9949 0.41461 -54.663 7.8776 6.1746 14.419 1.7264 -1.7125 -8.0016 -8.1142 -1.3769 -10.518 0.028452 0.0145 -0.0076122 -0 0 -0 
-0.11677 0.95137 0.03221 -0 0 -0 -2.9934 0.38743 -54.656 1.2329 -3.4991 4.1064 1.2329 -3.4991 4.1065 1.0185 -2.9453 3.4436 -0 0 -0 -3.3723 7.4394 8.2134 1.008 4.7182 -1.9104 3.3119 -1.5007 -2.8168 -0 0 -0 0.26799 14.044 20.134 31.648 -34.744 -82.836 -30.498 -29.675 73.68 2.0693 6.5083 1.9492 2.6839 3.6767 5.4998 -2.9934 0.38743 -54.656 6.9373 -5.4581 6.72 2.0809 9.3892 -1.756 -6.3652 -0.54146 -37.141 0.048052 0.040521 -0.0071709 -0 0 -0 -2.9934 0.38743 -54.656 7.8419 6.2183 14.374 1.7215 -1.7149 -8.0013 -8.0673 -1.4001 -10.492 0.030441 0.016143 -0.0085761 -0 0 -0 
-0.11697 0.9514 0.032576 -0 0 -0 -2.9936 0.36128 -54.65 1.2093 -3.4864 4.1124 1.2093 -3.4864 4.1124 0.99876 -2.9346 3.4487 -0 0 -0 -3.3525 7.4187 8.2473 1.0301 4.7114 -1.929 3.2832 -1.4803 -2.8216 -0 0 -0 0.30287 14.029 20.168 31.612 -34.718 -82.797 -30.545 -29.634 73.672 2.0892 6.4694 1.7242 2.6858 3.65 5.2804 -2.9936 0.36128 -54.65 6.9058 -5.4631 6.666 2.0601 9.4497 -1.7361 -6.2762 -0.58094 -37.123 0.044299 0.03706 -0.0065277 -0 0 -0 -2.9936 0.36128 -54.65 7.8088 6.2627 14.328 1.7154 -1.7177 -8.0011 -8.0176 -1.4214 -10.464 0.032342 0.017811 -0.0096079 -0 0 -0 
-0.11717 0.95142 0.032946 -0 0 -0 -2.9953 0.33625 -54.646 1.1847 -3.4741 4.1187 1.1847 -3.4741 4.1187 0.97821 -2.9242 3.4541 -0 0 -0 -3.3315 7.4014 8.2779 1.0514 4.7013 -1.939 3.2545 -1.4509 -2.8384 -0 0 -0 0.33957 14.012 20.199 31.583 -34.695 -82.762 -30.588 -29.605 73.674 2.1196 6.4315 1.502 2.6972 3.6247 5.0647 -2.9953 0.33625 -54.646 6.8792 -5.467 6.6162 2.0361 9.5117 -1.7173 -6.1917 -0.62242 -37.105 0.040751 0.033522 -0.0061692 -0 0 -0 -2.9953 0.33625 -54.646 7.7782 6.3076 14.28 1.7082 -1.7212 -8.0006 -7.9653 -1.4404 -10.433 0.034092 0.019657 -0.010705 -0 0 -0 
-0.11737 0.95145 0.033318 -0 0 -0 -2.9981 0.31228 -54.645 1.1595 -3.4622 4.1257 1.1595 -3.4622 4.1257 0.957 -2.914 3.4602 -0 0 -0 -3.3098 7.3871 8.3046 1.0715 4.6882 -1.9395 3.2267 -1.4127 -2.868 -0 0 -0 0.3776 13.994 20.227 31.559 -34.674 -82.732 -30.628 -29.588 73.688 2.1595 6.395 1.2825 2.7172 3.601 4.8527 -2.9981 0.31228 -54.645 6.8571 -5.4693 6.5725 2.0092 9.5739 -1.7011 -6.1116 -0.66544 -37.087 0.0374 0.030158 -0.006127 -0 0 -0 -2.9981 0.31228 -54.645 7.7496 6.3527 14.231 1.7003 -1.7255 -7.9995 -7.9109 -1.4567 -10.4 0.035543 0.021824 -0.011852 -0 0 -0 
